<?xml version="1.0" standalone="no"?>
<!DOCTYPE svg PUBLIC "-//W3C//DTD SVG 20010904//EN"
 "http://www.w3.org/TR/2001/REC-SVG-20010904/DTD/svg10.dtd">
<svg version="1.0" xmlns="http://www.w3.org/2000/svg"
 width="298.000000pt" height="298.000000pt" viewBox="0 0 298.000000 298.000000"
 preserveAspectRatio="xMidYMid meet">
<metadata>
Created by potrace 1.11, written by Peter Selinger 2001-2013
</metadata>
<g transform="translate(0.000000,298.000000) scale(0.100000,-0.100000)"
fill="#000000" stroke="none">
<path d="M1470 2890 c0 -69 0 -70 -26 -70 -14 0 -225 -66 -467 -147 -243 -81
-446 -148 -452 -149 -5 -2 -95 -31 -200 -67 l-190 -64 -3 -131 -3 -132 28 -1
c15 -1 47 -1 71 0 l42 1 0 -69 0 -70 58 1 c31 0 62 0 68 -1 6 -1 10 -27 10
-68 -1 -62 1 -68 19 -68 11 0 22 -3 25 -7 4 -5 5 -1204 1 -1230 0 -5 -12 -8
-25 -8 -23 0 -23 -2 -20 -71 l4 -70 -58 1 c-31 1 -63 1 -69 1 -9 -1 -13 -22
-13 -71 0 -67 1 -70 24 -70 19 0 23 -4 19 -20 -5 -17 -14 -20 -69 -20 l-64 0
0 -70 c0 -63 2 -70 20 -70 14 0 20 -7 20 -22 0 -22 -3 -23 -107 -23 l-108 0 0
-45 0 -45 1485 0 1485 0 3 46 3 46 -103 -2 c-57 0 -108 1 -114 3 -19 5 -4 42
17 42 17 0 19 8 19 70 l0 70 -69 0 c-60 0 -69 2 -67 18 2 9 13 18 24 20 20 3
22 9 22 73 0 68 0 69 -27 70 -16 0 -46 1 -68 2 l-40 2 0 65 c0 60 -2 65 -25
70 l-25 6 0 614 0 615 25 5 c24 5 25 8 24 73 -2 75 -12 68 91 70 l45 1 0 69 0
69 28 -2 c15 -1 46 -2 70 -1 l43 1 -3 132 -3 131 -85 30 c-47 16 -155 53 -240
82 -85 30 -274 95 -420 145 -146 50 -316 109 -378 130 -63 22 -117 39 -120 39
-38 -6 -42 1 -42 71 l0 70 -45 0 -45 0 0 -70z m-600 -969 c0 -68 1 -73 20 -68
11 3 20 0 21 -6 0 -16 0 -1129 0 -1189 -1 -41 -4 -48 -21 -48 -18 0 -20 -7
-20 -70 l0 -70 -70 1 -70 1 0 69 c0 62 -2 69 -20 69 -11 0 -20 3 -21 8 -6 49
-2 1212 3 1224 5 10 15 15 23 12 12 -5 15 6 15 63 0 38 2 72 4 74 2 2 34 4 70
4 l66 0 0 -74z m452 70 c4 -1 7 -31 6 -68 -2 -66 -1 -68 23 -71 l26 -3 0 -618
c-1 -603 -1 -617 -20 -618 -29 -3 -31 -8 -29 -78 l2 -65 -68 2 -67 3 0 65 c0
61 -1 65 -25 70 l-25 5 0 618 0 617 22 0 c15 0 23 6 24 18 1 9 2 40 4 67 1 28
3 52 3 55 2 4 92 5 124 1z m449 0 c14 -1 17 -11 15 -58 -3 -72 0 -83 28 -83
l21 0 0 -617 c0 -571 -1 -618 -17 -618 -27 0 -33 -14 -33 -78 l0 -62 -68 -2
-68 -2 2 42 c3 82 0 95 -23 99 l-23 3 -1 618 0 617 23 0 c24 0 27 13 23 102
-2 40 7 45 70 42 19 -2 42 -3 51 -3z m477 -71 c3 -66 5 -72 22 -67 16 4 20 0
21 -21 6 -156 3 -1191 -4 -1204 -4 -10 -14 -18 -22 -18 -12 0 -15 -15 -15 -69
l0 -68 -70 -2 -70 -1 1 66 c1 64 -11 91 -33 78 -4 -3 -8 14 -8 38 0 24 -1 302
-1 618 0 568 1 574 21 582 17 6 20 16 20 72 0 36 5 66 10 68 6 2 37 3 68 2
l57 -1 3 -73z"/>
</g>
</svg>
